<svg width="22" height="24" viewBox="0 0 22 24" fill="none" xmlns="http://www.w3.org/2000/svg">
<path d="M12.5 0.5C14.9189 0.5 16.9361 2.21781 17.3994 4.5H18C19.933 4.5 21.5 6.067 21.5 8V16C21.5 20.1421 18.1421 23.5 14 23.5H8C3.85786 23.5 0.5 20.1421 0.5 16V8C0.5 6.067 2.067 4.5 4 4.5H4.60059C5.0639 2.21781 7.08108 0.5 9.5 0.5H12.5ZM4 5.5C2.61929 5.5 1.5 6.61929 1.5 8V16C1.5 19.5899 4.41015 22.5 8 22.5H14C17.5899 22.5 20.5 19.5899 20.5 16V8C20.5 6.61929 19.3807 5.5 18 5.5H17.5V8C17.5 8.27614 17.2761 8.5 17 8.5C16.7239 8.5 16.5 8.27614 16.5 8V5.5H5.5V8C5.5 8.27614 5.27614 8.5 5 8.5C4.72386 8.5 4.5 8.27614 4.5 8V5.5H4ZM9.5 1.5C7.63616 1.5 6.07002 2.77477 5.62598 4.5H16.374C15.93 2.77477 14.3638 1.5 12.5 1.5H9.5Z" fill="black"/>
</svg>
